<?xml version="1.0" encoding="UTF-8" standalone="no"?>
<svg
   width="16"
   height="16"
   fill="currentColor"
   class="bi bi-battery-charging"
   viewBox="0 0 16 16"
   version="1.1"
   id="svg10"
   sodipodi:docname="battery-charging.svg"
   inkscape:version="1.1.2 (b8e25be833, 2022-02-05)"
   xmlns:inkscape="http://www.inkscape.org/namespaces/inkscape"
   xmlns:sodipodi="http://sodipodi.sourceforge.net/DTD/sodipodi-0.dtd"
   xmlns="http://www.w3.org/2000/svg"
   xmlns:svg="http://www.w3.org/2000/svg">
  <defs
     id="defs14" />
  <sodipodi:namedview
     id="namedview12"
     pagecolor="#ffffff"
     bordercolor="#666666"
     borderopacity="1.0"
     inkscape:pageshadow="2"
     inkscape:pageopacity="0.0"
     inkscape:pagecheckerboard="0"
     showgrid="false"
     inkscape:zoom="9.0929513"
     inkscape:cx="-7.2583695"
     inkscape:cy="14.186813"
     inkscape:window-width="1920"
     inkscape:window-height="1009"
     inkscape:window-x="1912"
     inkscape:window-y="-8"
     inkscape:window-maximized="1"
     inkscape:current-layer="svg10" />
  <path
     d="M9.585 2.568a.5.5 0 0 1 .226.58L8.677 6.832h1.99a.5.5 0 0 1 .364.843l-5.334 5.667a.5.5 0 0 1-.842-.49L5.99 9.167H4a.5.5 0 0 1-.364-.843l5.333-5.667a.5.5 0 0 1 .616-.09z"
     id="path2" />
  <path
     id="path930"
     d="m 16,8 a 1.5,1.5 0 0 1 -1.5,1.5 v -3 A 1.5,1.5 0 0 1 16,8 M 10.595,4 10.287,5 H 12 a 1,1 0 0 1 1,1 v 4 a 1,1 0 0 1 -1,1 H 9.276 L 8.334,12 H 12 a 2,2 0 0 0 2,-2 V 6 A 2,2 0 0 0 12,4 Z M 2,4 H 6.332 L 5.392,5 H 2 A 1,1 0 0 0 1,6 v 4 a 1,1 0 0 0 1,1 H 4.38 L 4.072,12 H 2 A 2,2 0 0 1 0,10 V 6 A 2,2 0 0 1 2,4" />
  <path
     id="path8"
     d="M 12,10 H 10.217 L 11.759,8.361 Q 11.905,8.205 12,8.021 Z M 12,6.646 V 6 H 11.354 A 1.5,1.5 0 0 1 12,6.646 M 2,6 H 4.45 L 2.908,7.639 A 1.5,1.5 0 0 0 3.313,10 H 2 Z"
     style="fill:#2ca02c" />
</svg>
