<?xml version="1.0" encoding="UTF-8" standalone="no"?>
<svg
   width="16"
   height="16"
   fill="currentColor"
   class="bi bi-battery-full"
   viewBox="0 0 16 16"
   version="1.1"
   id="svg6"
   sodipodi:docname="battery-full.svg"
   inkscape:version="1.1.2 (b8e25be833, 2022-02-05)"
   xmlns:inkscape="http://www.inkscape.org/namespaces/inkscape"
   xmlns:sodipodi="http://sodipodi.sourceforge.net/DTD/sodipodi-0.dtd"
   xmlns="http://www.w3.org/2000/svg"
   xmlns:svg="http://www.w3.org/2000/svg">
  <defs
     id="defs10" />
  <sodipodi:namedview
     id="namedview8"
     pagecolor="#ffffff"
     bordercolor="#666666"
     borderopacity="1.0"
     inkscape:pageshadow="2"
     inkscape:pageopacity="0.0"
     inkscape:pagecheckerboard="0"
     showgrid="false"
     inkscape:zoom="51.4375"
     inkscape:cx="7.9902795"
     inkscape:cy="8.0097205"
     inkscape:window-width="1920"
     inkscape:window-height="1009"
     inkscape:window-x="1912"
     inkscape:window-y="-8"
     inkscape:window-maximized="1"
     inkscape:current-layer="svg6" />
  <path
     d="M2 6h10v4H2z"
     id="path2"
     style="fill:#2ca02c" />
  <path
     d="M2 4a2 2 0 0 0-2 2v4a2 2 0 0 0 2 2h10a2 2 0 0 0 2-2V6a2 2 0 0 0-2-2zm10 1a1 1 0 0 1 1 1v4a1 1 0 0 1-1 1H2a1 1 0 0 1-1-1V6a1 1 0 0 1 1-1zm4 3a1.5 1.5 0 0 1-1.5 1.5v-3A1.5 1.5 0 0 1 16 8"
     id="path4" />
</svg>
